<mxfile host="app.diagrams.net" modified="2024-03-04T21:16:50.528Z" agent="Mozilla/5.0 (Windows NT 10.0; Win64; x64) AppleWebKit/537.36 (KHTML, like Gecko) Chrome/120.0.0.0 YaBrowser/24.1.0.0 Safari/537.36" etag="XxVoD0JH4ALbPPJ9Yd36" version="23.1.5" type="device">
  <diagram id="C5RBs43oDa-KdzZeNtuy" name="Page-1">
    <mxGraphModel dx="1687" dy="921" grid="1" gridSize="10" guides="1" tooltips="1" connect="1" arrows="1" fold="1" page="1" pageScale="1" pageWidth="827" pageHeight="1169" math="0" shadow="0">
      <root>
        <mxCell id="WIyWlLk6GJQsqaUBKTNV-0" />
        <mxCell id="WIyWlLk6GJQsqaUBKTNV-1" parent="WIyWlLk6GJQsqaUBKTNV-0" />
        <mxCell id="rPoSBjbexyiM44uenf_a-3" style="edgeStyle=orthogonalEdgeStyle;rounded=0;orthogonalLoop=1;jettySize=auto;html=1;exitX=0.5;exitY=1;exitDx=0;exitDy=0;entryX=0.5;entryY=0;entryDx=0;entryDy=0;" edge="1" parent="WIyWlLk6GJQsqaUBKTNV-1" source="rPoSBjbexyiM44uenf_a-0" target="rPoSBjbexyiM44uenf_a-1">
          <mxGeometry relative="1" as="geometry" />
        </mxCell>
        <mxCell id="rPoSBjbexyiM44uenf_a-0" value="Старт" style="ellipse;whiteSpace=wrap;html=1;" vertex="1" parent="WIyWlLk6GJQsqaUBKTNV-1">
          <mxGeometry x="329" y="30" width="170" height="40" as="geometry" />
        </mxCell>
        <mxCell id="rPoSBjbexyiM44uenf_a-5" style="edgeStyle=orthogonalEdgeStyle;rounded=0;orthogonalLoop=1;jettySize=auto;html=1;exitX=0.5;exitY=1;exitDx=0;exitDy=0;entryX=0.5;entryY=0;entryDx=0;entryDy=0;" edge="1" parent="WIyWlLk6GJQsqaUBKTNV-1" source="rPoSBjbexyiM44uenf_a-1" target="rPoSBjbexyiM44uenf_a-4">
          <mxGeometry relative="1" as="geometry" />
        </mxCell>
        <mxCell id="rPoSBjbexyiM44uenf_a-1" value="a, b, e, f(x)" style="shape=parallelogram;perimeter=parallelogramPerimeter;whiteSpace=wrap;html=1;fixedSize=1;" vertex="1" parent="WIyWlLk6GJQsqaUBKTNV-1">
          <mxGeometry x="354" y="110" width="120" height="60" as="geometry" />
        </mxCell>
        <mxCell id="rPoSBjbexyiM44uenf_a-7" style="edgeStyle=orthogonalEdgeStyle;rounded=0;orthogonalLoop=1;jettySize=auto;html=1;exitX=1;exitY=0.5;exitDx=0;exitDy=0;entryX=0.5;entryY=0;entryDx=0;entryDy=0;" edge="1" parent="WIyWlLk6GJQsqaUBKTNV-1" source="rPoSBjbexyiM44uenf_a-4" target="rPoSBjbexyiM44uenf_a-6">
          <mxGeometry relative="1" as="geometry" />
        </mxCell>
        <mxCell id="rPoSBjbexyiM44uenf_a-11" style="edgeStyle=orthogonalEdgeStyle;rounded=0;orthogonalLoop=1;jettySize=auto;html=1;exitX=0.5;exitY=1;exitDx=0;exitDy=0;entryX=0.5;entryY=0;entryDx=0;entryDy=0;" edge="1" parent="WIyWlLk6GJQsqaUBKTNV-1" source="rPoSBjbexyiM44uenf_a-4" target="rPoSBjbexyiM44uenf_a-10">
          <mxGeometry relative="1" as="geometry" />
        </mxCell>
        <mxCell id="rPoSBjbexyiM44uenf_a-4" value="f(a)*f(b)&amp;gt;0" style="rhombus;whiteSpace=wrap;html=1;" vertex="1" parent="WIyWlLk6GJQsqaUBKTNV-1">
          <mxGeometry x="374" y="210" width="80" height="80" as="geometry" />
        </mxCell>
        <mxCell id="rPoSBjbexyiM44uenf_a-9" style="edgeStyle=orthogonalEdgeStyle;rounded=0;orthogonalLoop=1;jettySize=auto;html=1;exitX=0.5;exitY=1;exitDx=0;exitDy=0;entryX=0.5;entryY=0;entryDx=0;entryDy=0;" edge="1" parent="WIyWlLk6GJQsqaUBKTNV-1" source="rPoSBjbexyiM44uenf_a-6" target="rPoSBjbexyiM44uenf_a-8">
          <mxGeometry relative="1" as="geometry" />
        </mxCell>
        <mxCell id="rPoSBjbexyiM44uenf_a-6" value="Корней нет, несколько" style="shape=parallelogram;perimeter=parallelogramPerimeter;whiteSpace=wrap;html=1;fixedSize=1;" vertex="1" parent="WIyWlLk6GJQsqaUBKTNV-1">
          <mxGeometry x="590" y="90" width="120" height="60" as="geometry" />
        </mxCell>
        <mxCell id="rPoSBjbexyiM44uenf_a-8" value="Конец" style="ellipse;whiteSpace=wrap;html=1;" vertex="1" parent="WIyWlLk6GJQsqaUBKTNV-1">
          <mxGeometry x="590" y="180" width="120" height="40" as="geometry" />
        </mxCell>
        <mxCell id="rPoSBjbexyiM44uenf_a-13" style="edgeStyle=orthogonalEdgeStyle;rounded=0;orthogonalLoop=1;jettySize=auto;html=1;exitX=0.5;exitY=1;exitDx=0;exitDy=0;entryX=0.5;entryY=0;entryDx=0;entryDy=0;" edge="1" parent="WIyWlLk6GJQsqaUBKTNV-1" source="rPoSBjbexyiM44uenf_a-10" target="rPoSBjbexyiM44uenf_a-12">
          <mxGeometry relative="1" as="geometry" />
        </mxCell>
        <mxCell id="rPoSBjbexyiM44uenf_a-37" style="edgeStyle=orthogonalEdgeStyle;rounded=0;orthogonalLoop=1;jettySize=auto;html=1;exitX=1;exitY=0.5;exitDx=0;exitDy=0;entryX=0.5;entryY=0;entryDx=0;entryDy=0;" edge="1" parent="WIyWlLk6GJQsqaUBKTNV-1" source="rPoSBjbexyiM44uenf_a-10" target="rPoSBjbexyiM44uenf_a-32">
          <mxGeometry relative="1" as="geometry">
            <Array as="points">
              <mxPoint x="640" y="345" />
              <mxPoint x="640" y="770" />
              <mxPoint x="414" y="770" />
            </Array>
          </mxGeometry>
        </mxCell>
        <mxCell id="rPoSBjbexyiM44uenf_a-10" value="n:0, 100" style="shape=hexagon;perimeter=hexagonPerimeter2;whiteSpace=wrap;html=1;fixedSize=1;" vertex="1" parent="WIyWlLk6GJQsqaUBKTNV-1">
          <mxGeometry x="354" y="330" width="120" height="30" as="geometry" />
        </mxCell>
        <mxCell id="rPoSBjbexyiM44uenf_a-18" style="edgeStyle=orthogonalEdgeStyle;rounded=0;orthogonalLoop=1;jettySize=auto;html=1;exitX=0.5;exitY=1;exitDx=0;exitDy=0;entryX=0.5;entryY=0;entryDx=0;entryDy=0;" edge="1" parent="WIyWlLk6GJQsqaUBKTNV-1" source="rPoSBjbexyiM44uenf_a-12" target="rPoSBjbexyiM44uenf_a-14">
          <mxGeometry relative="1" as="geometry" />
        </mxCell>
        <mxCell id="rPoSBjbexyiM44uenf_a-12" value="x = a-((b-a)/(f(b)-f(a))*f(a)" style="rounded=0;whiteSpace=wrap;html=1;" vertex="1" parent="WIyWlLk6GJQsqaUBKTNV-1">
          <mxGeometry x="354" y="390" width="120" height="30" as="geometry" />
        </mxCell>
        <mxCell id="rPoSBjbexyiM44uenf_a-20" style="edgeStyle=orthogonalEdgeStyle;rounded=0;orthogonalLoop=1;jettySize=auto;html=1;exitX=0;exitY=0.5;exitDx=0;exitDy=0;entryX=0.5;entryY=0;entryDx=0;entryDy=0;" edge="1" parent="WIyWlLk6GJQsqaUBKTNV-1" source="rPoSBjbexyiM44uenf_a-14" target="rPoSBjbexyiM44uenf_a-19">
          <mxGeometry relative="1" as="geometry" />
        </mxCell>
        <mxCell id="rPoSBjbexyiM44uenf_a-24" style="edgeStyle=orthogonalEdgeStyle;rounded=0;orthogonalLoop=1;jettySize=auto;html=1;exitX=1;exitY=0.5;exitDx=0;exitDy=0;entryX=0.5;entryY=0;entryDx=0;entryDy=0;" edge="1" parent="WIyWlLk6GJQsqaUBKTNV-1" source="rPoSBjbexyiM44uenf_a-14" target="rPoSBjbexyiM44uenf_a-23">
          <mxGeometry relative="1" as="geometry" />
        </mxCell>
        <mxCell id="rPoSBjbexyiM44uenf_a-14" value="f(x)*f(a)&amp;gt;0" style="rhombus;whiteSpace=wrap;html=1;" vertex="1" parent="WIyWlLk6GJQsqaUBKTNV-1">
          <mxGeometry x="374" y="450" width="80" height="80" as="geometry" />
        </mxCell>
        <mxCell id="rPoSBjbexyiM44uenf_a-15" value="Да" style="text;html=1;align=center;verticalAlign=middle;whiteSpace=wrap;rounded=0;" vertex="1" parent="WIyWlLk6GJQsqaUBKTNV-1">
          <mxGeometry x="454" y="220" width="60" height="30" as="geometry" />
        </mxCell>
        <mxCell id="rPoSBjbexyiM44uenf_a-16" value="Нет" style="text;html=1;align=center;verticalAlign=middle;whiteSpace=wrap;rounded=0;" vertex="1" parent="WIyWlLk6GJQsqaUBKTNV-1">
          <mxGeometry x="400" y="290" width="60" height="30" as="geometry" />
        </mxCell>
        <mxCell id="rPoSBjbexyiM44uenf_a-28" style="edgeStyle=orthogonalEdgeStyle;rounded=0;orthogonalLoop=1;jettySize=auto;html=1;exitX=0.5;exitY=1;exitDx=0;exitDy=0;entryX=0.5;entryY=0;entryDx=0;entryDy=0;" edge="1" parent="WIyWlLk6GJQsqaUBKTNV-1" source="rPoSBjbexyiM44uenf_a-19" target="rPoSBjbexyiM44uenf_a-27">
          <mxGeometry relative="1" as="geometry" />
        </mxCell>
        <mxCell id="rPoSBjbexyiM44uenf_a-19" value="a=x&lt;br&gt;abs = b-x" style="rounded=0;whiteSpace=wrap;html=1;" vertex="1" parent="WIyWlLk6GJQsqaUBKTNV-1">
          <mxGeometry x="234" y="550" width="120" height="40" as="geometry" />
        </mxCell>
        <mxCell id="rPoSBjbexyiM44uenf_a-21" value="Да" style="text;html=1;align=center;verticalAlign=middle;whiteSpace=wrap;rounded=0;" vertex="1" parent="WIyWlLk6GJQsqaUBKTNV-1">
          <mxGeometry x="300" y="460" width="60" height="30" as="geometry" />
        </mxCell>
        <mxCell id="rPoSBjbexyiM44uenf_a-29" style="edgeStyle=orthogonalEdgeStyle;rounded=0;orthogonalLoop=1;jettySize=auto;html=1;exitX=0.5;exitY=1;exitDx=0;exitDy=0;entryX=0.5;entryY=0;entryDx=0;entryDy=0;" edge="1" parent="WIyWlLk6GJQsqaUBKTNV-1" source="rPoSBjbexyiM44uenf_a-23" target="rPoSBjbexyiM44uenf_a-27">
          <mxGeometry relative="1" as="geometry" />
        </mxCell>
        <mxCell id="rPoSBjbexyiM44uenf_a-23" value="b=x&lt;br&gt;abs = a-x" style="rounded=0;whiteSpace=wrap;html=1;" vertex="1" parent="WIyWlLk6GJQsqaUBKTNV-1">
          <mxGeometry x="480" y="550" width="120" height="40" as="geometry" />
        </mxCell>
        <mxCell id="rPoSBjbexyiM44uenf_a-25" value="Нет" style="text;html=1;align=center;verticalAlign=middle;whiteSpace=wrap;rounded=0;" vertex="1" parent="WIyWlLk6GJQsqaUBKTNV-1">
          <mxGeometry x="460" y="460" width="60" height="30" as="geometry" />
        </mxCell>
        <mxCell id="rPoSBjbexyiM44uenf_a-30" style="edgeStyle=orthogonalEdgeStyle;rounded=0;orthogonalLoop=1;jettySize=auto;html=1;exitX=0;exitY=0.5;exitDx=0;exitDy=0;entryX=0;entryY=0.5;entryDx=0;entryDy=0;" edge="1" parent="WIyWlLk6GJQsqaUBKTNV-1" source="rPoSBjbexyiM44uenf_a-27" target="rPoSBjbexyiM44uenf_a-10">
          <mxGeometry relative="1" as="geometry">
            <Array as="points">
              <mxPoint x="210" y="690" />
              <mxPoint x="210" y="345" />
            </Array>
          </mxGeometry>
        </mxCell>
        <mxCell id="rPoSBjbexyiM44uenf_a-33" style="edgeStyle=orthogonalEdgeStyle;rounded=0;orthogonalLoop=1;jettySize=auto;html=1;exitX=0.5;exitY=1;exitDx=0;exitDy=0;entryX=0.5;entryY=0;entryDx=0;entryDy=0;" edge="1" parent="WIyWlLk6GJQsqaUBKTNV-1" source="rPoSBjbexyiM44uenf_a-27" target="rPoSBjbexyiM44uenf_a-32">
          <mxGeometry relative="1" as="geometry" />
        </mxCell>
        <mxCell id="rPoSBjbexyiM44uenf_a-27" value="abs&amp;lt;=e or |f(x)|&amp;lt;e" style="rhombus;whiteSpace=wrap;html=1;" vertex="1" parent="WIyWlLk6GJQsqaUBKTNV-1">
          <mxGeometry x="374" y="650" width="80" height="80" as="geometry" />
        </mxCell>
        <mxCell id="rPoSBjbexyiM44uenf_a-31" value="Нет" style="text;html=1;align=center;verticalAlign=middle;whiteSpace=wrap;rounded=0;" vertex="1" parent="WIyWlLk6GJQsqaUBKTNV-1">
          <mxGeometry x="290" y="660" width="60" height="30" as="geometry" />
        </mxCell>
        <mxCell id="rPoSBjbexyiM44uenf_a-35" style="edgeStyle=orthogonalEdgeStyle;rounded=0;orthogonalLoop=1;jettySize=auto;html=1;exitX=0.5;exitY=1;exitDx=0;exitDy=0;entryX=0.5;entryY=0;entryDx=0;entryDy=0;" edge="1" parent="WIyWlLk6GJQsqaUBKTNV-1" source="rPoSBjbexyiM44uenf_a-32" target="rPoSBjbexyiM44uenf_a-34">
          <mxGeometry relative="1" as="geometry" />
        </mxCell>
        <mxCell id="rPoSBjbexyiM44uenf_a-32" value="x, f(x), n, abss" style="shape=parallelogram;perimeter=parallelogramPerimeter;whiteSpace=wrap;html=1;fixedSize=1;" vertex="1" parent="WIyWlLk6GJQsqaUBKTNV-1">
          <mxGeometry x="354" y="800" width="120" height="60" as="geometry" />
        </mxCell>
        <mxCell id="rPoSBjbexyiM44uenf_a-34" value="Конец" style="ellipse;whiteSpace=wrap;html=1;" vertex="1" parent="WIyWlLk6GJQsqaUBKTNV-1">
          <mxGeometry x="354" y="900" width="120" height="40" as="geometry" />
        </mxCell>
        <mxCell id="rPoSBjbexyiM44uenf_a-36" value="Да" style="text;html=1;align=center;verticalAlign=middle;whiteSpace=wrap;rounded=0;" vertex="1" parent="WIyWlLk6GJQsqaUBKTNV-1">
          <mxGeometry x="394" y="730" width="60" height="30" as="geometry" />
        </mxCell>
      </root>
    </mxGraphModel>
  </diagram>
</mxfile>
